<svg width="512" height="512" fill="none" xmlns="http://www.w3.org/2000/svg"><rect width="512" height="512" rx="30" fill="url(#prefix__paint0_linear_7_43)"/><g filter="url(#prefix__filter0_d_7_43)"><path d="M264.036 112.475c17.197-12.233 33.065-12.59 46.592 8.03l-58.137 286.326c-17.882 3.278-31.871-.443-42.697-9.856l54.242-284.5z" fill="#FF6B01"/><path d="M211.583 110.422c-15.969 25.701-22.159 51.401-20.27 77.102.372 3.012 4.132 11.287 4.132 11.287s18.982 10.982 37.555 10.734c12.837-4.207 18.639-14.051 26.03-18.467 7.391-4.417 14.383-4.937 28.348 1.989 6.872 5.809-.861 16.079 8.797 21.699 14.453 8.41 26.163 10.539 46.401 8.92 9.532-.762 14.411-3.237 17.357-6.78 10-23.444 14.607-48.409 14.981-74.568-1.092-2.351-1.979-7.291-6.263-9.172-24.474-10.741-35.323-9.615-43.475-9.725-16.582-.226-15.532 11.694-27.353 12.433-14.725.921-27.685-2.259-39.291-19.396-12.77-6.669-27.742-5.872-46.949-6.056z" fill="#2D443D"/><path d="M362.855 230.316c-.271-.374-4.692 3.682-12.541 6.666-9.984 3.798-17.783 2.923-17.768 3.441.017.554 9.03 2.478 18.2-1.123 7.544-2.964 12.409-8.574 12.109-8.984zM352.894 248.675c-.259-.502-4.184 2.005-10.493 3.168-9.862 1.816-16.888-1.249-17.047-.628-.177.695 8.351 5.634 17.384 3.515 5.979-1.403 10.45-5.491 10.156-6.055zM117.004 143.981c.232-.902 11.164.809 21.212 3.447 16.764 4.399 31.484 11.483 31.092 12.588-.52 1.465-27.773-7.161-31.688-8.399-7.243-2.293-20.88-6.61-20.616-7.636zM123.876 179.868c-.086-.936 11.536-3.233 23.423-4.015 17.1-1.126 32.724 1.02 32.699 2.107-.022.899-10.803 1.285-28.252 1.908-14.493.518-27.779.992-27.87 0zM369.45 114.053c.494-.932 9.667 1.037 16.617 7.573 9.116 8.574 10.653 21.476 9.615 21.908-.881.367-3.226-8.467-12.307-17.963-7.5-7.84-14.372-10.675-13.925-11.518z" fill="#102626"/><path d="M270.727 250.546c-.958-.252-7.621 18.786-12.295 40.338-5.144 23.717-6.809 45.55-5.762 45.717.588.092 3.987-16.073 10.757-48.406 7.311-34.916 7.646-37.558 7.3-37.649zM253.438 227.111c-1.119-.253-3.457 5.057-4.609 9.604-1.434 5.661-1.607 12.408-.384 12.678 1.22.27 3.874-5.915 4.993-11.525.923-4.627 1.126-10.501 0-10.757zM241.529 311.63c-1.318-.298-6.393 15.225-9.604 30.348-3.769 17.748-5.326 36.617-3.842 36.881 1.655.294 7.188-22.54 10.372-40.338.321-1.79 4.711-26.523 3.074-26.891zM282.247 108.355c-.037-.499 3.695-1.808 7.783-1.373 7.024.746 11.876 6.293 11.598 6.714-.202.308-3.045-2.219-8.699-3.815-6.121-1.726-10.641-.979-10.682-1.526z" fill="#FFC00A"/><path d="M369.552 139.09c.879.351-5.099 12.855-9.077 32.907-5.159 26.012-2.733 43.46-3.782 43.499-1.149.043-6.046-20.774-.758-44.632 4.037-18.21 12.67-32.151 13.617-31.774zM304.195 141.867c.768.447-3.593 7.125-7.167 18.431-5.821 18.406-3.993 31.466-5.12 31.487-1.231.024-5.464-15.458 0-31.231 3.839-11.081 11.392-19.208 12.287-18.687zM257.066 123.061c.696.482-6.408 9.194-12.06 22.201-13.508 31.087-6.714 59.101-8.223 59.204-1.466.099-10.5-26.222 0-52.9 6.731-17.1 19.424-29.102 20.283-28.505zM260.849 139.095c.559.306-3.558 6.491-6.304 16.446-4.589 16.637-1.329 29.234-2.193 29.327-.894.096-5.868-13.238-1.919-27.683 2.923-10.686 9.764-18.447 10.416-18.09z" fill="#102626"/></g><defs><linearGradient id="prefix__paint0_linear_7_43" x1="512" y1="0" x2="0" y2="512" gradientUnits="userSpaceOnUse"><stop stop-color="#fff"/><stop offset="1" stop-color="#F3F3F3"/></linearGradient><filter id="prefix__filter0_d_7_43" x="113" y="104" width="286.964" height="312" filterUnits="userSpaceOnUse" color-interpolation-filters="sRGB"><feFlood flood-opacity="0" result="BackgroundImageFix"/><feColorMatrix in="SourceAlpha" values="0 0 0 0 0 0 0 0 0 0 0 0 0 0 0 0 0 0 127 0" result="hardAlpha"/><feOffset dy="4"/><feGaussianBlur stdDeviation="2"/><feComposite in2="hardAlpha" operator="out"/><feColorMatrix values="0 0 0 0 0 0 0 0 0 0 0 0 0 0 0 0 0 0 0.25 0"/><feBlend in2="BackgroundImageFix" result="effect1_dropShadow_7_43"/><feBlend in="SourceGraphic" in2="effect1_dropShadow_7_43" result="shape"/></filter></defs></svg>